<svg id="dollar" xmlns="http://www.w3.org/2000/svg" width="18.977" height="18.977" viewBox="0 0 18.977 18.977">
  <path id="Caminho_1659" data-name="Caminho 1659" d="M9.525,0A9.521,9.521,0,0,0,0,9.451a9.585,9.585,0,0,0,9.525,9.525A9.488,9.488,0,0,0,9.525,0Z" fill="#fedb41"/>
  <path id="Caminho_1660" data-name="Caminho 1660" d="M266.451,9.451A9.521,9.521,0,0,1,257,18.977V0A9.458,9.458,0,0,1,266.451,9.451Z" transform="translate(-247.475)" fill="#fc3"/>
  <path id="Caminho_1661" data-name="Caminho 1661" d="M67.3,60a7.265,7.265,0,1,0,7.227,7.227A7.305,7.305,0,0,0,67.3,60Z" transform="translate(-57.776 -57.776)" fill="#fea832"/>
  <path id="Caminho_1662" data-name="Caminho 1662" d="M264.227,67.227a7.305,7.305,0,0,1-7.227,7.3V60A7.241,7.241,0,0,1,264.227,67.227Z" transform="translate(-247.475 -57.776)" fill="#fe9923"/>
  <path id="Caminho_1663" data-name="Caminho 1663" d="M183.966,124.448h-.556v-2.224h.556a.551.551,0,0,1,.556.556.556.556,0,0,0,1.112,0,1.666,1.666,0,0,0-1.668-1.668h-.556v-.556a.556.556,0,1,0-1.112,0v.556h-.63A1.666,1.666,0,0,0,180,122.78v1.112a1.666,1.666,0,0,0,1.668,1.668h.63v2.3h-.63a.551.551,0,0,1-.556-.556.556.556,0,0,0-1.112,0,1.666,1.666,0,0,0,1.668,1.668h.63v.556a.556.556,0,1,0,1.112,0v-.556h.556a1.666,1.666,0,0,0,1.668-1.668v-1.186A1.666,1.666,0,0,0,183.966,124.448Zm-1.668,0h-.63a.551.551,0,0,1-.556-.556V122.78a.551.551,0,0,1,.556-.556h.63Zm2.224,2.854a.551.551,0,0,1-.556.556h-.556v-2.3h.556a.551.551,0,0,1,.556.556Z" transform="translate(-173.329 -115.552)" fill="#fedb41"/>
  <path id="Caminho_1664" data-name="Caminho 1664" d="M258.112,124.448h-.556v-2.224h.556a.551.551,0,0,1,.556.556.556.556,0,0,0,1.112,0,1.666,1.666,0,0,0-1.668-1.668h-.556v-.556A.536.536,0,0,0,257,120v10.081a.536.536,0,0,0,.556-.556v-.556h.556a1.666,1.666,0,0,0,1.668-1.668v-1.186A1.666,1.666,0,0,0,258.112,124.448Zm.556,2.854a.551.551,0,0,1-.556.556h-.556v-2.3h.556a.551.551,0,0,1,.556.556Z" transform="translate(-247.475 -115.552)" fill="#fc3"/>
</svg>
