<svg xmlns="http://www.w3.org/2000/svg" width="31.547" height="31.549" viewBox="0 0 31.547 31.549">
  <g id="Grupo_357" data-name="Grupo 357" transform="translate(0)">
    <path id="Caminho_34" data-name="Caminho 34" d="M12231.679,2827h6.205a12.705,12.705,0,0,1,12.664,12.678v6.207a12.693,12.693,0,0,1-12.664,12.664h-6.205a12.707,12.707,0,0,1-12.678-12.664v-6.207A12.719,12.719,0,0,1,12231.679,2827Z" transform="translate(-12219.001 -2827)" fill="#0c9dd1" fill-rule="evenodd"/>
    <path id="Caminho_35" data-name="Caminho 35" d="M12232.786,2827h2.68a13.831,13.831,0,0,1,13.789,13.785v2.682a13.831,13.831,0,0,1-13.789,13.786h-2.68a13.829,13.829,0,0,1-13.785-13.786v-2.682A13.829,13.829,0,0,1,12232.786,2827Z" transform="translate(-12219.001 -2827)" fill="#15ace5" fill-rule="evenodd"/>
    <path id="github" d="M15.137,14.355a.916.916,0,0,1,.755.436,1.945,1.945,0,0,1,0,2.139.926.926,0,0,1-.755.434.954.954,0,0,1-.789-.434,1.774,1.774,0,0,1-.319-1.071,1.744,1.744,0,0,1,.319-1.069.952.952,0,0,1,.789-.436Zm3.781-3.915a4.62,4.62,0,0,1,1.239,3.246,8.155,8.155,0,0,1-.284,2.226,5.475,5.475,0,0,1-.718,1.605A4.593,4.593,0,0,1,18.083,18.6a5.535,5.535,0,0,1-1.173.686,5.765,5.765,0,0,1-1.223.336,9.1,9.1,0,0,1-1.039.136q-.345.015-.752.015c-.06,0-.264.007-.6.016s-.614.02-.834.02-.5-.007-.834-.02q-.3-.011-.6-.016c-.271,0-.523,0-.752-.015a8.7,8.7,0,0,1-1.037-.136,5.5,5.5,0,0,1-1.224-.336A5.416,5.416,0,0,1,6.84,18.6a4.68,4.68,0,0,1-1.074-1.086,5.439,5.439,0,0,1-.718-1.605,8.182,8.182,0,0,1-.284-2.226A4.612,4.612,0,0,1,6,10.44c-.091-.045-.1-.489-.014-1.337a7.942,7.942,0,0,1,.546-2.344A8.909,8.909,0,0,1,10.349,8.5a8.71,8.71,0,0,1,2.109-.2,8.238,8.238,0,0,1,2.109.2,14.217,14.217,0,0,1,1.984-1.139,6.361,6.361,0,0,1,1.393-.5l.434-.1A7.937,7.937,0,0,1,18.926,9.1c.085.847.08,1.293-.01,1.337Zm-6.421,8.6a10.254,10.254,0,0,0,4.2-.667,2.731,2.731,0,0,0,1.426-2.746,2.578,2.578,0,0,0-.906-2.009,2.049,2.049,0,0,0-1.093-.535,8.6,8.6,0,0,0-1.887,0c-.847.069-1.426.1-1.738.1-.424,0-.884-.023-1.456-.067q-.669-.052-1.339-.084a4.125,4.125,0,0,0-1.054.118,2.121,2.121,0,0,0-.941.467,2.567,2.567,0,0,0-.867,2.009,2.729,2.729,0,0,0,1.4,2.744,10.074,10.074,0,0,0,4.18.668ZM9.819,14.355a.914.914,0,0,1,.752.436,1.948,1.948,0,0,1,0,2.139.922.922,0,0,1-.752.434.953.953,0,0,1-.79-.434,1.766,1.766,0,0,1-.32-1.071,1.745,1.745,0,0,1,.32-1.069A.95.95,0,0,1,9.819,14.355Z" transform="translate(3.27 2.361)" fill="#fff"/>
  </g>
</svg>
