<svg id="Grupo_354" data-name="Grupo 354" xmlns="http://www.w3.org/2000/svg" width="31.533" height="31.549" viewBox="0 0 31.533 31.549">
  <path id="Caminho_13" data-name="Caminho 13" d="M3046.663,2827h6.207a12.706,12.706,0,0,1,12.664,12.678v6.207a12.693,12.693,0,0,1-12.664,12.664h-6.207A12.693,12.693,0,0,1,3034,2845.885v-6.207A12.705,12.705,0,0,1,3046.663,2827Z" transform="translate(-3034 -2827)" fill="#08779c" fill-rule="evenodd"/>
  <path id="Caminho_14" data-name="Caminho 14" d="M3047.77,2827h2.683a13.831,13.831,0,0,1,13.786,13.785v2.682a13.83,13.83,0,0,1-13.786,13.786h-2.683a13.816,13.816,0,0,1-13.77-13.786v-2.682A13.817,13.817,0,0,1,3047.77,2827Z" transform="translate(-3034 -2827)" fill="#0084b1" fill-rule="evenodd"/>
  <path id="Caminho_23" data-name="Caminho 23" d="M3676.387,3390a1.381,1.381,0,1,1-1.387,1.372A1.391,1.391,0,0,1,3676.387,3390Z" transform="translate(-3665.003 -3381.22)" fill="#fefefe" fill-rule="evenodd"/>
  <path id="Caminho_24" data-name="Caminho 24" d="M3689.012,3642.688h-1.622a.384.384,0,0,1-.39-.375v-6.924a.386.386,0,0,1,.39-.389h1.622a.382.382,0,0,1,.374.389v6.924A.379.379,0,0,1,3689.012,3642.688Z" transform="translate(-3676.817 -3622.399)" fill="#fefefe" fill-rule="evenodd"/>
  <path id="Caminho_25" data-name="Caminho 25" d="M3944.454,3625.62a2.619,2.619,0,0,0-2.635-2.62h-.4a2.321,2.321,0,0,0-1.919,1,.907.907,0,0,0-.125.2h-.031v-.857a.157.157,0,0,0-.157-.157h-2.026a.168.168,0,0,0-.156.157v7.376a.168.168,0,0,0,.156.156h2.074a.156.156,0,0,0,.155-.156v-4.257a1.345,1.345,0,0,1,2.293-.967,1.384,1.384,0,0,1,.39.951v4.273a.156.156,0,0,0,.155.156h2.075a.156.156,0,0,0,.155-.156v-5.1Z" transform="translate(-3922.918 -3610.587)" fill="#fefefe" fill-rule="evenodd"/>
</svg>
