<svg xmlns="http://www.w3.org/2000/svg" xmlns:xlink="http://www.w3.org/1999/xlink" width="153.182" height="42.721" viewBox="0 0 153.182 42.721">
  <defs>
    <clipPath id="clip-path">
      <path id="path128" d="M1310.947-294.915h153.182v-42.721H1310.947Z" transform="translate(-1310.947 337.635)" fill="#fff"/>
    </clipPath>
  </defs>
  <g id="Grupo_360" data-name="Grupo 360" transform="translate(-32 -89)">
    <g id="g126" transform="translate(32 89)" clip-path="url(#clip-path)">
      <g id="g132" transform="translate(0 0.001)">
        <path id="path134" d="M-59.1-26.581a10.751,10.751,0,0,0-7.922,3.288,10.788,10.788,0,0,0-3.275,7.918,10.746,10.746,0,0,0,3.288,7.918A10.779,10.779,0,0,0-59.1-4.168a10.76,10.76,0,0,0,7.934-3.264,10.826,10.826,0,0,0,3.25-7.942,10.826,10.826,0,0,0-3.25-7.942A10.765,10.765,0,0,0-59.1-26.581m.366-9.915a21.115,21.115,0,0,1,15.286,6.223,20.1,20.1,0,0,1,6.379,14.9A20.02,20.02,0,0,1-43.487-.385,21.729,21.729,0,0,1-59.1,5.776,21.69,21.69,0,0,1-74.689-.415a20,20,0,0,1-6.452-14.959,19.845,19.845,0,0,1,6.5-14.99A22.309,22.309,0,0,1-58.732-36.5" transform="translate(81.142 36.496)" fill="#fff"/>
      </g>
      <g id="g136" transform="translate(17.241 21.104)">
        <path id="path138" d="M-28.868-4.1l4.2,4.854a.511.511,0,0,1-.053.72.508.508,0,0,1-.288.123l-.55.07a56.118,56.118,0,0,1-6.825.628.509.509,0,0,1-.457-.265L-34.17.577h0l-5.319-5.335a.51.51,0,0,1,0-.721.512.512,0,0,1,.381-.147h6.774a4.728,4.728,0,0,1,1.944.319A4.216,4.216,0,0,1-28.868-4.1" transform="translate(39.637 5.629)" fill="#fff"/>
      </g>
      <g id="g140" transform="translate(17.752 21.612)">
        <path id="path142" d="M-26.469-3.629l4.2,4.855a61.581,61.581,0,0,1-7.34.7.558.558,0,0,0-.03-.057l-1.367-1.5-5.334-5.35,6.8,0a3.383,3.383,0,0,1,3.078,1.354" transform="translate(36.341 4.983)" fill="#fff" fill-rule="evenodd"/>
      </g>
      <g id="g144" transform="translate(17.752 21.612)">
        <path id="path146" d="M-26.469-3.629l4.2,4.855c-.451.192-.447.78-.222,1.174.832,1.459,1.305,1.312,2.29,2.029l-.538,6.828a.91.91,0,0,1-.216.358.439.439,0,0,1-.245.1,2.266,2.266,0,0,1-1.131-.084c-.308-.193-.295-.592-.33-1.413-.024-.566-.118-.258-.17-.034-.136.6-.373,1.427-.558,1.466a5.072,5.072,0,0,1-1.046-.036c-.253-.086-.382-1.024-.455-1.636-.066-.553-.118-.292-.186.007-.146.636-.4,1.394-.553,1.433a2.293,2.293,0,0,1-1.333-.1c-.147-.046-.154-.97-.208-1.566-.038-.416-.109-.192-.168.022a3.228,3.228,0,0,1-.553,1.35c-.242.149-1.356.085-1.433-.427a4.847,4.847,0,0,1,0-.95c.32-2.291-.123-5.521-.285-7.825a.558.558,0,0,0-.03-.057l-1.367-1.5-5.334-5.35,6.8,0a3.383,3.383,0,0,1,3.078,1.354" transform="translate(36.341 4.983)" fill="#060369" fill-rule="evenodd"/>
      </g>
      <path id="path148" d="M1397.8-231.226Zm-.562-.413a.808.808,0,0,1-.166-.52v-.007l.05-1.1v0h0v0a.762.762,0,0,1,.027-.158.68.68,0,0,1,.059-.145.715.715,0,0,1,.654-.37h0l.993.047.8.036h0a.715.715,0,0,1,.16.026.688.688,0,0,1,.143.059.711.711,0,0,1,.37.655l-.051,1.108a.564.564,0,0,1-.066.246.638.638,0,0,1,.382.635l-.051,1.132a.666.666,0,0,1-.177.447.512.512,0,0,1,.186.436l-.05,1.106h0a.688.688,0,0,1-.035.188.694.694,0,0,1-.08.166.8.8,0,0,1-.119.136.734.734,0,0,1-.126.089.717.717,0,0,1,.038.265l-.051,1.108v.005a.792.792,0,0,1-.026.158.867.867,0,0,1-.06.145.715.715,0,0,1-.654.369h0l-.538-.026h0l-1.247-.058h-.006a.642.642,0,0,1-.158-.026.686.686,0,0,1-.143-.059.711.711,0,0,1-.371-.654v0h0l.051-1.106v0h0v0a.807.807,0,0,1,.027-.157.756.756,0,0,1,.054-.143.665.665,0,0,1,.069-.115.81.81,0,0,1-.12-.44h0l.051-1.109h0c0-.009,0-.019,0-.032a.771.771,0,0,1,.034-.155.781.781,0,0,1,.063-.142c.014-.02.028-.042.043-.062a.926.926,0,0,1-.127-.471l.051-1.109a.21.21,0,0,1,0-.024.039.039,0,0,1,0-.013.707.707,0,0,1,.026-.136.9.9,0,0,1,.051-.138c.012-.026.024-.05.038-.074m.6-.373h0a.341.341,0,0,1,.307.342.338.338,0,0,1-.342.336c-.022,0,.021.027.008.057a.13.13,0,0,0-.012.03c0,.007,0,.012,0,.018v.005h0l-.051,1.108a.223.223,0,0,0,.078.162.338.338,0,0,1,.293.338.338.338,0,0,1-.34.338.049.049,0,0,0-.043.02s0,0,0,0a.01.01,0,0,1,0,0h0l-.05,1.106a.141.141,0,0,0,.047.1l.009.007a.338.338,0,0,1,.3.349.339.339,0,0,1-.351.328.139.139,0,0,0-.027.045.164.164,0,0,0-.008.018s0,.008,0,.013v0h0l-.051,1.105h0a.033.033,0,0,0,.016.028h.005l.007,0h0l1.246.058h.007l.536.024a.032.032,0,0,0,.028-.018l0-.007v-.005h0l.05-1.1a.035.035,0,0,0-.005-.02h0s0,0,0,0h0a2.644,2.644,0,0,0-.609-.091c-.081-.008-.147-.013-.2-.024a.342.342,0,0,1-.231-.146.339.339,0,0,1,.089-.471,1.634,1.634,0,0,1,.642-.066c.23,0,.48.007.6.007h0a.057.057,0,0,0,.041-.015s0,0,0,0,0,0,0,0v-.007l.051-1.105c0-.028-.405-.022-.642-.05a1.373,1.373,0,0,1-.318-.061.5.5,0,0,1-.065-.032h0a.34.34,0,0,1-.12-.136.34.34,0,0,1,.154-.455.68.68,0,0,1,.308-.043c.215,0,.667,0,.673-.1l.051-1.132c0-.062-.413-.113-.686-.147a2.327,2.327,0,0,1-.32-.053h0a.34.34,0,0,1-.25-.335.344.344,0,0,1,.349-.332h0a3.488,3.488,0,0,0,.589-.013l.051-1.106a.032.032,0,0,0-.018-.03h-.013l-.793-.036-.993-.046a.032.032,0,0,0-.028.018l0,.005v.009h0l-.049,1.1a.015.015,0,0,1,0,.008.122.122,0,0,0,.055.1l.017.008a.044.044,0,0,0,.019,0Z" transform="translate(-1373.567 262.114)" fill="#060369"/>
      <g id="g150" transform="translate(23.698 28.511)">
        <path id="path152" d="M-1.472-5.17a.456.456,0,0,1-.4-.469l.051-1.108A.368.368,0,0,1-1.434-7.1l.993.045.8.038a.369.369,0,0,1,.353.386L.656-5.522c-.016.366-.835.342-.94.339C-.021-5.109,1-5.125.972-4.64L.921-3.508c-.024.538-1.093.4-1.17.438.092.059,1.2.058,1.179.444L.879-1.518a.375.375,0,0,1-.385.351c-.23,0-1.024-.015-1.05,0,.049.027.8.038.986.195a.376.376,0,0,1,.128.3L.508.434A.371.371,0,0,1,.121.787L-.415.761-1.669.7A.37.37,0,0,1-2.02.317l.051-1.108a.42.42,0,0,1,.389-.4.453.453,0,0,1-.361-.461l.053-1.108A.374.374,0,0,1-1.5-3.112c-.209-.014-.382-.311-.373-.513l.051-1.108c.009-.2.182-.436.351-.436" transform="translate(2.02 7.098)" fill="#fff" fill-rule="evenodd"/>
      </g>
      <g id="g154" transform="translate(31.043 27.337)">
        <path id="path156" d="M-7.353-27.8-4.9-25a.036.036,0,0,1,.007.008,3.655,3.655,0,0,0,3.4,1.362h.417l.473,0H4.113l-8.987-9.131c-.18-.159-.259-.447-.511-1.544-.112-.489-.239-1.042-.373-1.486-.03-.1-.051-.182-.07-.258-.082-.324-.1-.382-.517-.544a10.894,10.894,0,0,0-2.524-.73c-.182-.019-.307.009-.35.08a.641.641,0,0,0,.055.543,3.965,3.965,0,0,0,1.5,1.419c.212.143.432.29.665.461a.418.418,0,0,1,.17.373Zm5.861,5.012a4.434,4.434,0,0,1-4.043-1.66L-8.1-27.385a.421.421,0,0,1-.1-.309l.519-6.591c-.154-.108-.3-.208-.45-.308a4.627,4.627,0,0,1-1.778-1.735,1.457,1.457,0,0,1-.022-1.362,1.067,1.067,0,0,1,.966-.486,1.709,1.709,0,0,1,.184.009,11.489,11.489,0,0,1,2.742.782,1.371,1.371,0,0,1,1.029,1.121c.018.07.036.145.059.222.142.471.273,1.04.388,1.541a11.723,11.723,0,0,0,.3,1.151l9.684,9.838a.425.425,0,0,1,.088.458.422.422,0,0,1-.388.257H-.6l-.467,0h-.423" transform="translate(10.096 38.176)" fill="#060369"/>
      </g>
      <g id="g158" transform="translate(31.462 27.758)">
        <path id="path160" d="M-11.955-34.927l-2.568-2.934.536-6.826c-.984-.719-1.816-1.1-2.289-2.029-.263-.521-.216-1.324.711-1.231a11.73,11.73,0,0,1,2.633.755c.747.289.68.548.839,1.073a26.918,26.918,0,0,0,.767,2.845l9.7,9.859H-7.34c-1.979,0-3.232.157-4.615-1.512" transform="translate(16.414 47.956)" fill="#fff" fill-rule="evenodd"/>
      </g>
      <g id="g162" transform="translate(50.681 13.337)">
        <path id="path164" d="M-20.529-3.506c-3.842,0-4.861,4.468-4.861,7.576,0,3.291.419,8.2,4.73,8.2,4.233,0,5.174-4.7,5.174-8.1,0-3.369-.836-7.68-5.043-7.68m8.046,19.647a9.639,9.639,0,0,1-2.586.286c-1.882,0-4.808-1.75-6.219-2.926-5.3,0-6.9-4.546-6.9-9.066,0-4.936,3.163-9.249,8.336-9.249,5.331,0,7.16,3.815,7.16,8.65,0,3.969-1.673,8.149-5.854,9.195,1.255.862,4.181,2.717,5.8,2.717a1.517,1.517,0,0,0,.339-.026Z" transform="translate(28.186 4.814)" fill="#fff"/>
      </g>
      <g id="g166" transform="translate(68.056 18.407)">
        <path id="path168" d="M-24.864-34.878-25-37.072a5.225,5.225,0,0,1-4.65,2.429c-2.56,0-3-1.986-3-4.129v-7.236c0-.731-.888-.94-1.463-.94l-.024-.443c1.305-.105,2.586-.366,3.892-.5v9.457c0,1.254.417,2.352,1.855,2.352,1.489,0,3.344-1.386,3.344-2.953v-7.052c0-.576-.705-.838-1.175-.863v-.443c1.2-.132,2.352-.393,3.554-.5V-37.1c0,1.124.392,1.673,1.54,1.7v.523Z" transform="translate(34.138 47.888)" fill="#fff"/>
      </g>
      <g id="g170" transform="translate(82.188 18.381)">
        <path id="path172" d="M-19.127-19.116a4.643,4.643,0,0,0-1.332-.157c-1.909,0-3.294.811-3.294,2.875,0,1.594,1.175,2.325,2.64,2.325a5.164,5.164,0,0,0,1.986-.365Zm2.978,5.539a26.294,26.294,0,0,1-5.146.6c-2.457,0-4.966-.55-4.966-3.529,0-2.925,2.744-3.866,5.253-3.866a7.7,7.7,0,0,1,1.882.209v-2.012c0-1.644-.419-2.978-2.352-2.978a3.294,3.294,0,0,0-2.953,2.379,2.427,2.427,0,0,1-1.1-1.623c0-1.279,3.137-1.854,4.1-1.854,2.745,0,4.651.574,4.651,3.71v7.053a1.808,1.808,0,0,0,.627,1.673Z" transform="translate(26.262 26.247)" fill="#fff"/>
      </g>
      <g id="g174" transform="translate(93.249 12.292)">
        <path id="path176" d="M-16.675-50.992a5.431,5.431,0,0,1-2.039.365c-2.482,0-2.717-.966-2.717-3.134V-67.556A1.369,1.369,0,0,0-22.895-69.1v-.444c1.308-.1,2.587-.365,3.895-.47v16.251c0,1.724.913,2.168,2.507,2.09Z" transform="translate(22.895 70.012)" fill="#fff"/>
      </g>
      <g id="g178" transform="translate(101.264 12.684)">
        <path id="path180" d="M-7.142-8.127A1.579,1.579,0,0,1-8.709-9.643a1.6,1.6,0,0,1,1.567-1.516A1.553,1.553,0,0,1-5.574-9.695,1.608,1.608,0,0,1-7.142-8.127m2.822,15.7H-9.806V7.1c.784-.1,1.54-.417,1.54-1.332V-3.11c0-1.019-.705-1.15-1.54-1.255v-.523l3.945-.574V5.771c0,.862.758,1.279,1.541,1.332Z" transform="translate(9.806 11.159)" fill="#fff"/>
      </g>
      <g id="g182" transform="translate(108.122 18.381)">
        <path id="path184" d="M-21.434-8.754a2.442,2.442,0,0,0-2.352-2.168c-2.534,0-3.057,3.291-3.057,5.224,0,2.325.785,5.774,3.684,5.774A5.724,5.724,0,0,0-20.782-.29,1.946,1.946,0,0,1-21.25.887a7.411,7.411,0,0,1-2.352.366c-4.154,0-5.827-2.9-5.827-6.741,0-3.369,2.22-6.531,5.8-6.531,1.177,0,3.476.1,3.476,1.724a1.9,1.9,0,0,1-1.281,1.541" transform="translate(29.429 12.019)" fill="#fff"/>
      </g>
      <g id="g186" transform="translate(118.31 18.354)">
        <path id="path188" d="M-15.693-2.941c-2.64,0-3.319,3.187-3.319,5.276,0,1.987.184,5.8,2.953,5.8,3,0,3.369-3.529,3.369-5.8,0-2.037-.286-5.276-3-5.276m-.758,12.2c-4,0-5.1-3.318-5.1-6.741,0-3.734,2.482-6.556,6.3-6.556s5.122,2.691,5.122,6.139c0,3.945-2.091,7.159-6.323,7.159" transform="translate(21.547 4.038)" fill="#fff"/>
      </g>
      <g id="g190" transform="translate(130.769 18.303)">
        <path id="path192" d="M-20.6-7.776A2.006,2.006,0,0,0-22.2-8.9c-1.359,0-2.09,1.594-2.09,2.768V.557a1.532,1.532,0,0,0,1.516,1.385v.5h-5.49V1.994c.731-.105,1.543-.6,1.543-1.437v-8.7c0-1.1-.63-1.306-1.57-1.49v-.47l3.714-.523.131,2.274a4.035,4.035,0,0,1,3.606-2.325c.392,0,1.359.078,1.359.627A3.787,3.787,0,0,1-20.6-7.776" transform="translate(28.29 10.677)" fill="#fff"/>
      </g>
      <g id="g194" transform="translate(141.005 18.381)">
        <path id="path196" d="M-19.265-3.43A3.467,3.467,0,0,0-22.557-.088v6.9a3.94,3.94,0,0,0,2.116.471c3.057,0,3.606-3.319,3.606-5.723,0-1.673-.1-4.989-2.429-4.989M-20.545,8.509a4.312,4.312,0,0,1-1.986-.417v3c0,.784.785,1.2,1.489,1.255l-.026.39H-26.45v-.417a1.422,1.422,0,0,0,1.489-1.306V-1.863c0-.94-.47-1.829-1.489-1.855v-.392l3.737-.6c.024.835.077,1.7.077,2.56.577-1.8,2.64-2.56,4.364-2.56,3.292,0,4,3.083,4,5.771,0,3.921-1.96,7.447-6.271,7.447" transform="translate(26.45 4.709)" fill="#fff"/>
      </g>
    </g>
  </g>
</svg>
