<svg xmlns="http://www.w3.org/2000/svg" width="31.546" height="31.548" viewBox="0 0 31.546 31.548">
  <g id="Grupo_356" data-name="Grupo 356" transform="translate(0)">
    <path id="Caminho_17" data-name="Caminho 17" d="M9162.664,0h6.207a12.712,12.712,0,0,1,12.675,12.663V18.87a12.715,12.715,0,0,1-12.675,12.679h-6.207A12.717,12.717,0,0,1,9150,18.87V12.663A12.713,12.713,0,0,1,9162.664,0Z" transform="translate(-9150 0)" fill="#5098cf" fill-rule="evenodd"/>
    <path id="Caminho_18" data-name="Caminho 18" d="M9163.787,0h2.682a13.816,13.816,0,0,1,13.77,13.786v2.682a13.8,13.8,0,0,1-13.77,13.77h-2.682A13.817,13.817,0,0,1,9150,16.468V13.786A13.831,13.831,0,0,1,9163.787,0Z" transform="translate(-9150 0)" fill="#61a8de" fill-rule="evenodd"/>
    <path id="Caminho_29" data-name="Caminho 29" d="M9737.463,638.319l-11.229,4.366a.412.412,0,0,0,.031.78l2.854.842,1.06,3.384a.5.5,0,0,0,.826.187l1.468-1.5,2.9,2.121a.616.616,0,0,0,.952-.359l1.918-9.17A.58.58,0,0,0,9737.463,638.319Zm-1.4,2.027-5.225,4.616a.38.38,0,0,0-.094.171l-.2,1.794c0,.062-.08.062-.111,0l-.827-2.651a.3.3,0,0,1,.126-.328l6.16-3.821A.14.14,0,0,1,9736.061,640.347Z" transform="translate(-9716.987 -628.323)" fill="#fff" fill-rule="evenodd"/>
  </g>
</svg>
