<svg xmlns="http://www.w3.org/2000/svg" width="31.533" height="31.549" viewBox="0 0 31.533 31.549">
  <g id="Grupo_355" data-name="Grupo 355" transform="translate(0 0)">
    <path id="Caminho_19" data-name="Caminho 19" d="M6085.663,2827h6.206a12.706,12.706,0,0,1,12.664,12.678v6.207a12.694,12.694,0,0,1-12.664,12.664h-6.206A12.692,12.692,0,0,1,6073,2845.885v-6.207A12.7,12.7,0,0,1,6085.663,2827Z" transform="translate(-6073 -2827)" fill="#17bf39" fill-rule="evenodd"/>
    <path id="Caminho_20" data-name="Caminho 20" d="M6086.77,2827h2.7a13.817,13.817,0,0,1,13.771,13.785v2.682a13.816,13.816,0,0,1-13.771,13.786h-2.7a13.816,13.816,0,0,1-13.77-13.786v-2.682A13.817,13.817,0,0,1,6086.77,2827Z" transform="translate(-6073 -2827)" fill="#1bd741" fill-rule="evenodd"/>
    <path id="Caminho_26" data-name="Caminho 26" d="M6635,3339.721l1.029-3.665a7.325,7.325,0,1,1,2.744,2.7Zm3.961-2.309.233.141a6.107,6.107,0,1,0-1.965-1.919l.155.234-.592,2.106Z" transform="translate(-6626.237 -3317.233)" fill="#fff" fill-rule="evenodd"/>
    <path id="Caminho_27" data-name="Caminho 27" d="M6870.408,3575.031l-.483-.032a.638.638,0,0,0-.405.141,2.255,2.255,0,0,0-.718,1.091,3.28,3.28,0,0,0,.778,2.6,7.685,7.685,0,0,0,4.165,3.025,2.018,2.018,0,0,0,1.716-.218,1.547,1.547,0,0,0,.67-.967l.078-.359a.3.3,0,0,0-.14-.28l-1.606-.733a.267.267,0,0,0-.312.078l-.623.811a.17.17,0,0,1-.2.063,4.981,4.981,0,0,1-2.684-2.292.194.194,0,0,1,.032-.2l.593-.7a.245.245,0,0,0,.045-.249l-.7-1.623A.215.215,0,0,0,6870.408,3575.031Z" transform="translate(-6856.341 -3563.334)" fill="#fff" fill-rule="evenodd"/>
  </g>
</svg>
